<svg width="24" height="24" viewBox="0 0 24 24" fill="none" xmlns="http://www.w3.org/2000/svg">
<path d="M12.4999 13.675V10H14.9999L13.9999 9H12.4999V5C12.4999 4.71667 12.5957 4.47917 12.7874 4.2875C12.9791 4.09583 13.2166 4 13.4999 4H15.9249C16.1082 4 16.2791 4.04583 16.4374 4.1375C16.5957 4.22917 16.7166 4.35833 16.7999 4.525L18.7499 8H17.2999L16.2999 6H13.9999V7H15.6999L16.6999 9H19.2999L20.7749 11.575C20.3416 11.3917 19.8916 11.25 19.4249 11.15C18.9582 11.05 18.4832 11 17.9999 11C16.8832 11 15.8457 11.2417 14.8874 11.725C13.9291 12.2083 13.1332 12.8583 12.4999 13.675ZM10.4999 20H8.0749C7.89157 20 7.72074 19.9542 7.5624 19.8625C7.40407 19.7708 7.28324 19.6417 7.1999 19.475L5.2499 16H6.6999L7.6999 18H9.9999V17H8.2999L7.2999 15H4.6999L3.2749 12.5C3.24157 12.4167 3.2124 12.3333 3.1874 12.25C3.1624 12.1667 3.1499 12.0833 3.1499 12C3.1499 11.9333 3.19157 11.7667 3.2749 11.5L4.6999 9H7.2999L8.2999 7H9.9999V6H7.6999L6.6999 8H5.2499L7.1999 4.525C7.28324 4.35833 7.40407 4.22917 7.5624 4.1375C7.72074 4.04583 7.89157 4 8.0749 4H10.4999C10.7832 4 11.0207 4.09583 11.2124 4.2875C11.4041 4.47917 11.4999 4.71667 11.4999 5V9H9.9999L8.9999 10H11.4999V13H9.2999L8.2999 11H5.9999L4.9999 12H7.6999L8.6999 14H11.4999V15.4C11.3332 15.8 11.2082 16.2167 11.1249 16.65C11.0416 17.0833 10.9999 17.5333 10.9999 18C10.9999 18.2833 11.0124 18.5667 11.0374 18.85C11.0624 19.1333 11.1166 19.4167 11.1999 19.7C11.1166 19.7833 11.0124 19.8542 10.8874 19.9125C10.7624 19.9708 10.6332 20 10.4999 20ZM17.4999 16.9L16.0499 18.35C15.9499 18.45 15.8332 18.5 15.6999 18.5C15.5666 18.5 15.4499 18.45 15.3499 18.35C15.2499 18.25 15.1999 18.1333 15.1999 18C15.1999 17.8667 15.2499 17.75 15.3499 17.65L17.6499 15.35C17.7499 15.25 17.8666 15.2 17.9999 15.2C18.1332 15.2 18.2499 15.25 18.3499 15.35L20.6499 17.65C20.7499 17.75 20.7999 17.8667 20.7999 18C20.7999 18.1333 20.7499 18.25 20.6499 18.35C20.5499 18.45 20.4332 18.5 20.2999 18.5C20.1666 18.5 20.0499 18.45 19.9499 18.35L18.4999 16.9V20.5C18.4999 20.6333 18.4499 20.75 18.3499 20.85C18.2499 20.95 18.1332 21 17.9999 21C17.8666 21 17.7499 20.95 17.6499 20.85C17.5499 20.75 17.4999 20.6333 17.4999 20.5V16.9ZM17.9999 13C16.6166 13 15.4374 13.4875 14.4624 14.4625C13.4874 15.4375 12.9999 16.6167 12.9999 18C12.9999 19.3833 13.4874 20.5625 14.4624 21.5375C15.4374 22.5125 16.6166 23 17.9999 23C19.3832 23 20.5624 22.5125 21.5374 21.5375C22.5124 20.5625 22.9999 19.3833 22.9999 18C22.9999 16.6167 22.5124 15.4375 21.5374 14.4625C20.5624 13.4875 19.3832 13 17.9999 13Z"/>
</svg>
