<svg width="24" height="24" viewBox="0 0 24 24" fill="none" xmlns="http://www.w3.org/2000/svg">
<path fill-rule="evenodd" clip-rule="evenodd" d="M11.9753 2.5H12.0247C12.4114 2.49999 12.7388 2.49999 13.0086 2.51839C13.2909 2.53765 13.5643 2.57954 13.8318 2.69031C14.4444 2.94405 14.9311 3.43075 15.1848 4.04333C15.3185 4.36616 15.3533 4.70333 15.3666 5.05774C15.3761 5.31111 15.5034 5.51614 15.6836 5.62019C15.8638 5.72423 16.105 5.73196 16.3292 5.61348C16.6427 5.44776 16.9521 5.30933 17.2986 5.26372C17.956 5.17718 18.6208 5.35532 19.1468 5.75896C19.3765 5.93518 19.5495 6.15108 19.7073 6.38588C19.8581 6.61031 20.0218 6.89388 20.2152 7.22873L20.2399 7.27161C20.4332 7.60646 20.597 7.89002 20.7159 8.13285C20.8404 8.38691 20.9408 8.6447 20.9786 8.93168C21.0652 9.58907 20.887 10.2539 20.4834 10.7799C20.2706 11.0572 19.996 11.2559 19.6957 11.4446C19.481 11.5795 19.3671 11.7922 19.3671 12.0003C19.3671 12.2084 19.481 12.4211 19.6957 12.556C19.996 12.7447 20.2706 12.9435 20.4833 13.2207C20.8869 13.7467 21.0651 14.4115 20.9785 15.0689C20.9407 15.3559 20.8403 15.6137 20.7158 15.8678C20.5969 16.1106 20.4331 16.3942 20.2398 16.7291L20.2151 16.7718C20.0218 17.1067 19.8581 17.3903 19.7072 17.6147C19.5494 17.8495 19.3764 18.0654 19.1468 18.2416C18.6207 18.6453 17.9559 18.8234 17.2985 18.7369C16.9521 18.6913 16.6427 18.5529 16.3291 18.3871C16.105 18.2687 15.8637 18.2764 15.6835 18.3805C15.5033 18.4845 15.3761 18.6895 15.3666 18.9429C15.3533 19.2973 15.3185 19.6345 15.1848 19.9573C14.9311 20.5699 14.4444 21.0566 13.8318 21.3104C13.5643 21.4211 13.2909 21.463 13.0086 21.4823C12.7388 21.5007 12.4114 21.5007 12.0247 21.5007H11.9753C11.5886 21.5007 11.2612 21.5007 10.9914 21.4823C10.7091 21.463 10.4357 21.4211 10.1682 21.3104C9.55565 21.0566 9.06895 20.5699 8.81521 19.9573C8.68149 19.6345 8.64667 19.2973 8.63341 18.9429C8.62394 18.6896 8.49664 18.4845 8.31642 18.3805C8.13621 18.2764 7.89499 18.2687 7.67083 18.3872C7.35728 18.5529 7.04787 18.6913 6.70144 18.7369C6.04405 18.8235 5.37921 18.6454 4.85317 18.2417C4.62352 18.0655 4.45051 17.8496 4.29271 17.6148C4.14187 17.3904 3.97815 17.1068 3.78482 16.7719L3.76013 16.7291C3.56678 16.3943 3.40305 16.1107 3.28409 15.8678C3.15965 15.6138 3.05918 15.356 3.0214 15.069C2.93485 14.4116 3.113 13.7468 3.51664 13.2207C3.72936 12.9435 4.00396 12.7448 4.30426 12.5561C4.51895 12.4212 4.63288 12.2084 4.63289 12.0003C4.6329 11.7922 4.51897 11.5794 4.30425 11.4445C4.00399 11.2558 3.72943 11.0571 3.51673 10.7799C3.11308 10.2538 2.93494 9.58901 3.02148 8.93162C3.05927 8.64464 3.15973 8.38685 3.28418 8.13279C3.40313 7.88995 3.56686 7.60637 3.76021 7.2715L3.78491 7.22871C3.97824 6.89384 4.14196 6.61025 4.29279 6.38582C4.45059 6.15102 4.62361 5.93511 4.85325 5.7589C5.37929 5.35526 6.04413 5.17712 6.70152 5.26366C7.04797 5.30927 7.3574 5.44772 7.67097 5.61345C7.8951 5.73191 8.13628 5.72419 8.31647 5.62016C8.49665 5.51613 8.62394 5.31112 8.63341 5.05779C8.64666 4.70336 8.68148 4.36617 8.81521 4.04333C9.06895 3.43075 9.55565 2.94405 10.1682 2.69031C10.4357 2.57954 10.7091 2.53765 10.9914 2.51839C11.2612 2.49999 11.5886 2.49999 11.9753 2.5ZM11.0935 4.01491C10.8876 4.02896 10.7964 4.05368 10.7423 4.07613C10.4972 4.17763 10.3025 4.37231 10.201 4.61736C10.1726 4.68602 10.1439 4.80413 10.1324 5.11384C10.1053 5.8365 9.7321 6.5349 9.06646 6.9192C8.40083 7.3035 7.60938 7.27753 6.97004 6.93961C6.69603 6.79478 6.57942 6.76053 6.50573 6.75083C6.24277 6.71621 5.97682 6.78747 5.76639 6.94893C5.71986 6.98464 5.65286 7.05124 5.53776 7.22251C5.4189 7.39938 5.28058 7.63813 5.0716 8.00011C4.86261 8.36209 4.725 8.60124 4.63126 8.79262C4.54049 8.97794 4.51631 9.06926 4.50865 9.12741C4.47403 9.39037 4.54529 9.65632 4.70676 9.86674C4.75199 9.9257 4.83994 10.0095 5.10229 10.1744C5.71467 10.5592 6.13293 11.2317 6.13289 12.0004C6.13285 12.769 5.71461 13.4414 5.10228 13.8262C4.83987 13.991 4.75191 14.0749 4.70667 14.1339C4.54521 14.3443 4.47395 14.6102 4.50857 14.8732C4.51622 14.9314 4.5404 15.0227 4.63117 15.208C4.72491 15.3994 4.86252 15.6385 5.07151 16.0005C5.2805 16.3625 5.41881 16.6012 5.53768 16.7781C5.65278 16.9494 5.71978 17.016 5.76631 17.0517C5.97673 17.2131 6.24268 17.2844 6.50565 17.2498C6.57933 17.2401 6.69593 17.2058 6.96991 17.061C7.60928 16.7231 8.40076 16.6971 9.06642 17.0814C9.73209 17.4658 10.1053 18.1642 10.1324 18.8869C10.1439 19.1965 10.1726 19.3147 10.201 19.3833C10.3025 19.6284 10.4972 19.823 10.7423 19.9245C10.7964 19.947 10.8876 19.9717 11.0935 19.9858C11.3061 20.0003 11.582 20.0007 12 20.0007C12.418 20.0007 12.6939 20.0003 12.9065 19.9858C13.1124 19.9717 13.2036 19.947 13.2577 19.9245C13.5028 19.823 13.6975 19.6284 13.799 19.3833C13.8274 19.3146 13.8561 19.1965 13.8676 18.8868C13.8947 18.1642 14.2679 17.4658 14.9335 17.0815C15.5991 16.6971 16.3906 16.723 17.03 17.061C17.304 17.2058 17.4206 17.24 17.4943 17.2497C17.7572 17.2843 18.0232 17.2131 18.2336 17.0516C18.2801 17.0159 18.3471 16.9493 18.4622 16.778C18.5811 16.6012 18.7194 16.3624 18.9284 16.0004C19.1374 15.6385 19.275 15.3993 19.3687 15.2079C19.4595 15.0226 19.4837 14.9313 19.4914 14.8731C19.526 14.6102 19.4547 14.3442 19.2933 14.1338C19.248 14.0748 19.1601 13.991 18.8977 13.8261C18.2853 13.4414 17.8671 12.7689 17.8671 12.0002C17.8672 11.2316 18.2854 10.5592 18.8977 10.1745C19.1601 10.0096 19.2481 9.92577 19.2933 9.86681C19.4548 9.65638 19.5261 9.39043 19.4914 9.12747C19.4838 9.06932 19.4596 8.978 19.3688 8.79268C19.2751 8.6013 19.1375 8.36215 18.9285 8.00017C18.7195 7.63819 18.5812 7.39944 18.4623 7.22257C18.3472 7.0513 18.2802 6.9847 18.2337 6.94899C18.0233 6.78753 17.7573 6.71627 17.4944 6.75089C17.4207 6.76059 17.3041 6.79484 17.0301 6.93964C16.3907 7.27758 15.5992 7.30355 14.9336 6.91923C14.2679 6.5349 13.8947 5.83648 13.8676 5.1138C13.8561 4.80412 13.8274 4.68602 13.799 4.61736C13.6975 4.37231 13.5028 4.17763 13.2577 4.07613C13.2036 4.05368 13.1124 4.02896 12.9065 4.01491C12.6939 4.00041 12.418 4 12 4C11.582 4 11.3061 4.00041 11.0935 4.01491ZM12 10.1252C10.9644 10.1252 10.1249 10.9647 10.1249 12.0003C10.1249 13.0359 10.9644 13.8754 12 13.8754C13.0356 13.8754 13.8751 13.0359 13.8751 12.0003C13.8751 10.9647 13.0356 10.1252 12 10.1252ZM8.6249 12.0003C8.6249 10.1363 10.136 8.62524 12 8.62524C13.864 8.62524 15.3751 10.1363 15.3751 12.0003C15.3751 13.8644 13.864 15.3754 12 15.3754C10.136 15.3754 8.6249 13.8644 8.6249 12.0003Z"/>
</svg>
