<svg width="24" height="24" viewBox="0 0 24 24" fill="none" xmlns="http://www.w3.org/2000/svg">
<path d="M8.9802 12.1789C9.55379 12.8224 10.5652 12.8741 11.2078 12.3178L12.9938 10.7707C13.3582 10.4546 13.9258 10.483 14.2542 10.8324L17.9116 14.7358C17.9523 14.7793 18.0019 14.8144 18.0575 14.839C18.113 14.8636 18.1734 14.8772 18.2347 14.879C18.296 14.8807 18.3571 14.8705 18.4141 14.8491C18.4711 14.8276 18.5229 14.7953 18.5662 14.7542L20.293 13.1221L20.7863 12.8344C20.8368 12.8049 20.8806 12.7663 20.9152 12.7208C20.9498 12.6753 20.9746 12.6238 20.9881 12.5692C21.0017 12.5146 21.0036 12.4581 20.994 12.4027C20.9843 12.3474 20.9632 12.2945 20.9318 12.2469L17.0224 6.33081C16.9601 6.23681 16.8615 6.16948 16.7475 6.14315C16.6336 6.11681 16.5132 6.13354 16.4121 6.18978L14.9837 6.98776H13.6491C13.1424 6.98701 12.6413 7.08911 12.1799 7.28718C11.7185 7.48525 11.3075 7.77465 10.9746 8.13582L9.02294 10.2555C8.51983 10.8019 8.48609 11.624 8.9802 12.1789Z"/>
<path d="M10.3621 6.98988H9.87169C9.55079 6.98988 9.23513 6.90697 8.95996 6.75106L7.74756 6.0608C7.64646 6.00336 7.52555 5.98573 7.41084 6.01171C7.29614 6.03769 7.19681 6.1052 7.13423 6.1997L3.05015 12.3801C3.02715 12.4149 3.01163 12.4535 3.00449 12.494C2.99735 12.5344 2.99874 12.5757 3.00856 12.6156C3.01838 12.6555 3.03646 12.6932 3.06174 12.7265C3.08702 12.7598 3.11901 12.788 3.15587 12.8096L8.35263 16.8555C9.30334 17.5954 10.4966 18 11.7282 18H13.6656C14.6043 18 15.5041 17.6478 16.1684 17.0199L17.2916 15.9583C17.3725 15.8816 17.4195 15.7787 17.423 15.6705C17.4265 15.5623 17.3862 15.4569 17.3103 15.3757L13.8935 11.7296C13.7271 11.5517 13.4384 11.5375 13.2525 11.6984L11.8151 12.9435C10.8307 13.8322 9.12641 13.7217 8.27915 12.7125C7.52487 11.8529 7.56086 10.5482 8.36313 9.67721C8.36313 9.67721 10.4408 7.42643 10.5173 7.35486C10.6612 7.22021 10.5645 6.98988 10.3621 6.98988Z"/>
</svg>
