<svg width="156" height="60" viewBox="0 0 156 60" fill="none" xmlns="http://www.w3.org/2000/svg">
<rect width="156" height="60.0012" fill="url(#paint0_linear_74_4571)"/>
<path d="M47.8751 29.7178C49.6295 26.3951 51.0035 22.9031 51.8279 19.9826C51.5108 19.9402 51.1937 19.9191 50.8555 19.8767C50.0523 22.628 48.7629 25.9719 47.0296 29.2734C46.7125 29.8871 46.3743 30.4797 46.0361 31.0723C46.5012 30.9241 46.9662 30.7548 47.4312 30.5855C47.558 30.2892 47.706 29.9929 47.8751 29.7178Z" fill="white"/>
<path d="M35.5521 23.195C35.7635 22.7929 35.9749 22.412 36.1862 22.031C35.7212 22.1792 35.2773 22.3273 34.8334 22.4755C34.7912 22.5601 34.7277 22.6448 34.6855 22.7506C32.7408 26.4331 31.3457 30.0309 30.5425 33.2054C30.8595 33.2266 31.1766 33.2477 31.5148 33.2689C32.2969 30.306 33.6074 26.8563 35.5521 23.195Z" fill="white"/>
<path d="M33.6713 27.8103C33.5233 28.149 33.3754 28.4876 33.2485 28.8262C34.6436 30.0748 36.3769 31.2388 38.3639 32.2124C40.4142 33.2071 42.5068 33.8843 44.4727 34.2017C44.684 33.9054 44.8743 33.588 45.0645 33.2705C43.0776 33.0166 40.9004 32.3393 38.7866 31.3023C36.7997 30.3288 35.0452 29.1013 33.6713 27.8103Z" fill="white"/>
<path d="M51.3 25.7597C49.7147 23.6433 47.1782 21.6751 44.1977 20.236C41.3019 18.818 38.2792 18.0349 35.6793 18.0349C32.8045 18.0349 30.7753 18.9661 29.9298 20.6804C28.894 22.7968 29.9721 25.5692 32.4875 28.1088C32.6354 27.7702 32.7622 27.4104 32.9102 27.0718C30.9444 24.9554 30.0566 22.7121 30.8176 21.1248C31.4517 19.8127 33.2273 19.0508 35.6581 19.0508C38.1101 19.0508 40.9848 19.7915 43.7327 21.146C46.5652 22.5428 48.9537 24.384 50.4545 26.3734C51.8707 28.257 52.3146 30.0135 51.6805 31.3257C51.0464 32.6378 49.2708 33.3997 46.84 33.3997C46.6074 33.3997 46.3538 33.3785 46.1213 33.3785C45.9099 33.696 45.7197 34.0346 45.5083 34.3521C45.9522 34.3944 46.3961 34.4156 46.84 34.4156C49.7147 34.4156 51.7439 33.4844 52.5894 31.7701C53.4349 30.0982 52.9699 27.9818 51.3 25.7597Z" fill="white"/>
<path d="M45.2333 32.3404C41.2171 38.8588 36.3977 43.4724 33.3539 43.4724C32.9523 43.4724 32.593 43.3878 32.2759 43.2185C30.6271 42.3508 30.1833 38.9858 31.2613 34.2451C30.9231 34.2239 30.606 34.2028 30.2889 34.1816C29.1898 39.1551 29.6337 42.9222 31.832 44.065C32.2759 44.2978 32.8043 44.4248 33.3539 44.4248C36.9685 44.4248 42.2529 39.3667 46.6284 31.8748C46.1845 32.0653 45.7195 32.2134 45.2333 32.3404Z" fill="white"/>
<path d="M42.547 31.7265C41.7649 31.917 40.9828 32.0651 40.2007 32.2133C40.8348 32.4672 41.4478 32.6789 42.0608 32.8693C42.2933 32.827 42.5258 32.7635 42.7583 32.7212C46.077 31.9593 49.1631 30.88 51.7419 29.6101C51.6785 29.2927 51.5939 28.9752 51.4671 28.6366C48.9517 29.8853 45.8656 30.9646 42.547 31.7265Z" fill="white"/>
<path d="M30.415 23.027C30.4573 23.3445 30.5419 23.6831 30.6476 24.0217C33.0995 22.7519 36.2702 21.5667 40.0116 20.699C40.4766 20.5932 40.9205 20.4874 41.3855 20.4027C40.7302 20.1699 40.0961 19.9583 39.462 19.789C35.9954 20.6355 32.9093 21.7572 30.415 23.027Z" fill="white"/>
<path d="M38.3625 32.5065C36.6292 32.7393 34.9382 32.8663 33.374 32.8663C28.6392 32.8663 25.4474 31.7657 25.0457 29.988C24.7075 28.4854 26.4408 26.4325 29.7595 24.5278C29.6326 24.1892 29.5481 23.8717 29.4847 23.5331C25.7222 25.6495 23.5661 28.0833 24.0734 30.1996C24.623 32.5276 28.005 33.8609 33.3951 33.8609C35.4878 33.8609 37.7918 33.6493 40.1381 33.2472C39.5251 33.0356 38.9332 32.7816 38.3625 32.5065Z" fill="white"/>
<path d="M58.5064 22.2237C57.9779 19.8957 54.5748 18.5624 49.1846 18.5624C46.7961 18.5624 44.1327 18.8375 41.4482 19.3666C42.0401 19.5783 42.632 19.8111 43.2238 20.065C45.2953 19.7264 47.3245 19.5571 49.1846 19.5571C53.9195 19.5571 57.1113 20.6576 57.5129 22.4353C57.83 23.7898 56.4771 25.5676 53.8138 27.2818C53.3488 27.5781 52.8626 27.8532 52.3553 28.1283C52.4821 28.467 52.5878 28.7844 52.6724 29.1019C53.2642 28.7844 53.8349 28.4458 54.3634 28.1283C57.4706 26.1601 58.9291 24.0438 58.5064 22.2237Z" fill="white"/>
<path fill-rule="evenodd" clip-rule="evenodd" d="M43.8362 26.3051C43.8362 27.85 42.5891 29.0987 41.046 29.0987C39.503 29.0987 38.2559 27.85 38.2559 26.3051C38.2559 24.7602 39.503 23.5115 41.046 23.5115C42.5891 23.5115 43.8362 24.7602 43.8362 26.3051Z" fill="white"/>
<path d="M36.9046 20.7641C37.2639 20.1715 37.6233 19.5789 38.0037 19.0075C37.6444 18.944 37.285 18.9017 36.9257 18.8594C36.4607 19.6001 35.9956 20.362 35.5518 21.1662C35.9956 21.0392 36.4607 20.8911 36.9046 20.7641Z" fill="white"/>
<path d="M38.6174 18.095C42.3377 12.656 46.4807 8.97353 49.1863 8.97353C49.5879 8.97353 49.9472 9.05818 50.2643 9.22749C52.0187 10.1587 52.3992 13.9046 51.0675 19.1109C51.4057 19.1321 51.7228 19.1744 52.0399 19.2167C53.4138 13.7777 53.0545 9.58727 50.7293 8.35978C50.2643 8.12698 49.757 8 49.2074 8C46.0368 8 41.5767 11.8941 37.5605 17.9257C37.8988 17.9681 38.2581 18.0315 38.6174 18.095Z" fill="white"/>
<path d="M60.3236 52.0012V40.975L55.1237 47.5357L49.9027 40.975V52.0012H47.5142V36.4883H48.9092L55.1237 44.3611L61.3382 36.4883H62.7122V52.0012H60.3236Z" fill="white"/>
<path d="M74.2541 52.0012V41.0596L66.0738 52.0012H64.6787V36.4883H67.0673V47.4299L75.2476 36.4883H76.6426V52.0012H74.2541Z" fill="white"/>
<path d="M111.391 52.0012V41.0596L103.211 52.0012H101.815V36.4883H104.204V47.4299L112.384 36.4883H113.779V52.0012H111.391Z" fill="white"/>
<path d="M92.4314 31.343V28.5917H89.6623V31.343H88.2461V24.5918H89.6623V27.3219H92.4314V24.5918H93.8476V31.343H92.4314Z" fill="white"/>
<path d="M99.6816 31.343V27.1103L96.2785 31.343H95.4541V24.5918H96.8703V28.8457L100.273 24.5918H101.119V31.343H99.6816Z" fill="white"/>
<path d="M106.551 31.3433V29.6925H105.748C105.05 29.7137 104.86 29.8618 104.311 30.6661L103.846 31.3433H102.26L102.873 30.4544C103.317 29.7984 103.634 29.4597 103.951 29.2693C102.979 28.9095 102.408 28.1476 102.408 27.1529C102.408 25.735 103.507 24.6133 105.515 24.6133H107.946V31.3433H106.551ZM105.389 25.8619C104.459 25.8619 103.74 26.2852 103.74 27.1529C103.74 28.0629 104.459 28.4439 105.389 28.4439H106.551V25.8619H105.389Z" fill="white"/>
<path d="M110.314 31.343L111.794 28.9092L109.194 24.5918H110.8L112.597 27.5335L114.394 24.5918H116L111.921 31.343H110.314Z" fill="white"/>
<path d="M94.6927 37.0385C92.8537 37.0385 91.2684 37.9909 90.4229 39.3454V36.4883H88.0343V43.4511C88.0343 45.8426 86.2587 47.578 84.0181 47.578C81.7564 47.578 80.002 45.8426 80.002 43.4511C80.002 41.0596 81.7775 39.303 84.0181 39.303C85.2019 39.303 86.2587 39.7898 86.9986 40.6152V38.1814C86.1319 37.483 85.0116 37.0385 83.7856 37.0385C80.0865 37.0385 77.5923 39.8745 77.5923 43.4299C77.5923 46.9854 80.0865 49.8002 83.7856 49.8002C85.6246 49.8002 87.2099 48.869 88.0554 47.5145V51.9589H90.4863V43.0913C90.6343 40.8691 92.3464 39.2607 94.5025 39.2607C96.7642 39.2607 98.5186 41.0173 98.5186 43.4088C98.5186 45.8003 96.743 47.5357 94.5025 47.5357C93.3187 47.5357 92.283 47.0489 91.5643 46.2659V48.7208C92.4098 49.3769 93.509 49.8002 94.735 49.8002C98.4129 49.8002 100.907 46.9854 100.907 43.4299C100.865 39.8745 98.3495 37.0385 94.6927 37.0385Z" fill="white"/>
<defs>
<linearGradient id="paint0_linear_74_4571" x1="0" y1="30.0006" x2="156" y2="30.0006" gradientUnits="userSpaceOnUse">
<stop offset="0.502505" stop-color="#060F14" stop-opacity="0.5"/>
<stop offset="1" stop-color="#060F14" stop-opacity="0"/>
</linearGradient>
</defs>
</svg>
