<svg width="32" height="32" viewBox="0 0 32 32" fill="none" xmlns="http://www.w3.org/2000/svg">
<path d="M19.6048 8.85147L14.6123 6L5.84547 8.39289L4 17.6301L14.6384 13.886L19.6048 8.85147Z" fill="white"/>
<path d="M19.4546 11.0497L15.9923 14.5595L17.3765 16.2976L19.4546 11.0497Z" fill="white"/>
<path d="M16.6158 17.649L14.7897 15.3559L6.71527 18.1977L16.6158 17.649Z" fill="white"/>
<path d="M10.0005 23.4257L12.4967 22L16.88 23.1964L17.8027 27.815L12.4837 25.943L10.0005 23.4257Z" fill="white"/>
<path d="M10.0756 24.5249L11.8067 26.2797L11.1146 27.1488L10.0756 24.5249Z" fill="white"/>
<path d="M11.4949 27.8245L12.408 26.678L16.4451 28.0988L11.4949 27.8245Z" fill="white"/>
<rect x="26" y="2" width="4" height="8" fill="#FFAA2B" fill-opacity="0.5"/>
<rect x="26" y="12" width="4" height="8" fill="#EBB642"/>
<rect x="26" y="22" width="4" height="8" fill="#EBB642"/>
</svg>
