<svg width="24" height="24" viewBox="0 0 24 24" fill="none" xmlns="http://www.w3.org/2000/svg">
<path d="M15.1626 7.41251C15.1626 9.29719 13.6347 10.825 11.75 10.825C9.86536 10.825 8.33753 9.29719 8.33753 7.41251C8.33753 5.52783 9.86536 4 11.75 4C13.6347 4 15.1626 5.52783 15.1626 7.41251Z" />
<path d="M17.6001 16.1876C17.6001 18.0722 14.9809 19.6001 11.75 19.6001C8.51916 19.6001 5.90002 18.0722 5.90002 16.1876C5.90002 14.3029 8.51916 12.775 11.75 12.775C14.9809 12.775 17.6001 14.3029 17.6001 16.1876Z" />
<path d="M6.99402 4.975C7.16704 4.975 7.33596 4.99198 7.49908 5.0243C7.1017 5.7301 6.87502 6.54484 6.87502 7.41251C6.87502 8.25907 7.0908 9.05522 7.47035 9.74898C7.31616 9.77771 7.15691 9.79276 6.99402 9.79276C5.61496 9.79276 4.49701 8.71427 4.49701 7.38388C4.49701 6.05349 5.61496 4.975 6.99402 4.975Z" />
<path d="M5.36117 18.6114C4.80745 17.9495 4.43751 17.1372 4.43751 16.1876C4.43751 15.2669 4.78517 14.4754 5.3109 13.8249C3.45383 13.9689 2 14.9846 2 16.2162C2 17.4594 3.47938 18.4825 5.36117 18.6114Z" />
<path d="M16.625 7.41251C16.625 8.25907 16.4092 9.05522 16.0296 9.74898C16.1838 9.77771 16.3431 9.79276 16.506 9.79276C17.885 9.79276 19.003 8.71427 19.003 7.38388C19.003 6.05349 17.885 4.975 16.506 4.975C16.333 4.975 16.164 4.99198 16.0009 5.0243C16.3983 5.7301 16.625 6.54484 16.625 7.41251Z" />
<path d="M18.1388 18.6114C20.0206 18.4825 21.5 17.4594 21.5 16.2162C21.5 14.9846 20.0462 13.9689 18.1891 13.8249C18.7148 14.4754 19.0625 15.2669 19.0625 16.1876C19.0625 17.1372 18.6926 17.9495 18.1388 18.6114Z" />
</svg>
