<svg width="24" height="24" viewBox="0 0 24 24" fill="none" xmlns="http://www.w3.org/2000/svg">
<g clip-path="url(#clip0_815_3932)">
<path d="M10 13C12.2091 13 14 11.2091 14 9C14 6.79086 12.2091 5 10 5C7.79086 5 6 6.79086 6 9C6 11.2091 7.79086 13 10 13Z"/>
<path d="M16.39 15.56C14.71 14.7 12.53 14 10 14C7.47 14 5.29 14.7 3.61 15.56C2.61 16.07 2 17.1 2 18.22V21H18V18.22C18 17.1 17.39 16.07 16.39 15.56Z"/>
<path d="M20.36 1L18.95 2.41C21.68 5.14 21.68 9.58 18.95 12.31L20.36 13.72C23.88 10.21 23.88 4.51 20.36 1Z"/>
<path d="M17.5399 10.8981C19.4899 8.94812 19.4899 5.77813 17.5399 3.82812L16.1299 5.23812C17.2999 6.40812 17.2999 8.30812 16.1299 9.47812L17.5399 10.8981Z"/>
</g>
<defs>
<clipPath id="clip0_815_3932">
<rect width="24" height="24"/>
</clipPath>
</defs>
</svg>
