<svg width="24" height="24" viewBox="0 0 24 24" fill="none" xmlns="http://www.w3.org/2000/svg">
<path d="M9 20V16C8.15 15.9333 7.31667 15.8417 6.5 15.725C5.68333 15.6083 4.86667 15.4583 4.05 15.275C3.76667 15.2083 3.54167 15.05 3.375 14.8C3.20833 14.55 3.16667 14.2833 3.25 14C3.33333 13.7167 3.50417 13.5083 3.7625 13.375C4.02083 13.2417 4.29167 13.2083 4.575 13.275C5.79167 13.5583 7.02083 13.75 8.2625 13.85C9.50417 13.95 10.75 14 12 14C13.25 14 14.4958 13.95 15.7375 13.85C16.9792 13.75 18.2083 13.5583 19.425 13.275C19.725 13.2083 20 13.2417 20.25 13.375C20.5 13.5083 20.6667 13.7167 20.75 14C20.8333 14.2833 20.7875 14.55 20.6125 14.8C20.4375 15.05 20.2083 15.2083 19.925 15.275C19.1083 15.4583 18.2917 15.6083 17.475 15.725C16.6583 15.8417 15.8333 15.9333 15 16V20C15 20.2833 14.9042 20.5208 14.7125 20.7125C14.5208 20.9042 14.2833 21 14 21H10C9.71667 21 9.47917 20.9042 9.2875 20.7125C9.09583 20.5208 9 20.2833 9 20ZM12 13C11.4333 13 10.9583 12.8083 10.575 12.425C10.1917 12.0417 10 11.5667 10 11C10 10.45 10.1917 9.97917 10.575 9.5875C10.9583 9.19583 11.4333 9 12 9C12.55 9 13.0208 9.19583 13.4125 9.5875C13.8042 9.97917 14 10.45 14 11C14 11.5667 13.8042 12.0417 13.4125 12.425C13.0208 12.8083 12.55 13 12 13ZM4.5 10C4.06667 10 3.70833 9.85833 3.425 9.575C3.14167 9.29167 3 8.93333 3 8.5C3 8.08333 3.14167 7.72917 3.425 7.4375C3.70833 7.14583 4.06667 7 4.5 7C4.91667 7 5.27083 7.14583 5.5625 7.4375C5.85417 7.72917 6 8.08333 6 8.5C6 8.93333 5.85417 9.29167 5.5625 9.575C5.27083 9.85833 4.91667 10 4.5 10ZM19.5 10C19.0667 10 18.7083 9.85833 18.425 9.575C18.1417 9.29167 18 8.93333 18 8.5C18 8.08333 18.1417 7.72917 18.425 7.4375C18.7083 7.14583 19.0667 7 19.5 7C19.9167 7 20.2708 7.14583 20.5625 7.4375C20.8542 7.72917 21 8.08333 21 8.5C21 8.93333 20.8542 9.29167 20.5625 9.575C20.2708 9.85833 19.9167 10 19.5 10ZM7.25 6.25C6.81667 6.25 6.45833 6.10833 6.175 5.825C5.89167 5.54167 5.75 5.18333 5.75 4.75C5.75 4.33333 5.89167 3.97917 6.175 3.6875C6.45833 3.39583 6.81667 3.25 7.25 3.25C7.66667 3.25 8.02083 3.39583 8.3125 3.6875C8.60417 3.97917 8.75 4.33333 8.75 4.75C8.75 5.18333 8.60417 5.54167 8.3125 5.825C8.02083 6.10833 7.66667 6.25 7.25 6.25ZM16.75 6.25C16.3167 6.25 15.9583 6.10833 15.675 5.825C15.3917 5.54167 15.25 5.18333 15.25 4.75C15.25 4.33333 15.3917 3.97917 15.675 3.6875C15.9583 3.39583 16.3167 3.25 16.75 3.25C17.1667 3.25 17.5208 3.39583 17.8125 3.6875C18.1042 3.97917 18.25 4.33333 18.25 4.75C18.25 5.18333 18.1042 5.54167 17.8125 5.825C17.5208 6.10833 17.1667 6.25 16.75 6.25ZM12 5C11.5667 5 11.2083 4.85833 10.925 4.575C10.6417 4.29167 10.5 3.93333 10.5 3.5C10.5 3.08333 10.6417 2.72917 10.925 2.4375C11.2083 2.14583 11.5667 2 12 2C12.4167 2 12.7708 2.14583 13.0625 2.4375C13.3542 2.72917 13.5 3.08333 13.5 3.5C13.5 3.93333 13.3542 4.29167 13.0625 4.575C12.7708 4.85833 12.4167 5 12 5Z"/>
</svg>
