<svg width="24" height="24" viewBox="0 0 24 24" fill="none" xmlns="http://www.w3.org/2000/svg">
<path d="M19.5 10.925L18.1 12.3C17.9167 12.4833 17.6875 12.5792 17.4125 12.5875C17.1375 12.5958 16.9 12.5 16.7 12.3C16.5167 12.1167 16.425 11.8833 16.425 11.6C16.425 11.3167 16.5167 11.0833 16.7 10.9L18.075 9.5L16.7 8.125C16.5167 7.94167 16.425 7.7125 16.425 7.4375C16.425 7.1625 16.5167 6.925 16.7 6.725C16.9 6.525 17.1375 6.425 17.4125 6.425C17.6875 6.425 17.925 6.525 18.125 6.725L19.5 8.1L20.875 6.7C21.0583 6.5 21.2875 6.4 21.5625 6.4C21.8375 6.4 22.075 6.5 22.275 6.7C22.475 6.9 22.575 7.1375 22.575 7.4125C22.575 7.6875 22.475 7.925 22.275 8.125L20.9 9.5L22.3 10.9C22.5 11.1 22.5958 11.3333 22.5875 11.6C22.5792 11.8667 22.475 12.1 22.275 12.3C22.075 12.4833 21.8417 12.5792 21.575 12.5875C21.3083 12.5958 21.075 12.5 20.875 12.3L19.5 10.925ZM9 12C7.9 12 6.95833 11.6083 6.175 10.825C5.39167 10.0417 5 9.1 5 8C5 6.9 5.39167 5.95833 6.175 5.175C6.95833 4.39167 7.9 4 9 4C10.1 4 11.0417 4.39167 11.825 5.175C12.6083 5.95833 13 6.9 13 8C13 9.1 12.6083 10.0417 11.825 10.825C11.0417 11.6083 10.1 12 9 12ZM1 18V17.2C1 16.6333 1.14583 16.1125 1.4375 15.6375C1.72917 15.1625 2.11667 14.8 2.6 14.55C3.63333 14.0333 4.68333 13.6458 5.75 13.3875C6.81667 13.1292 7.9 13 9 13C10.1 13 11.1833 13.1292 12.25 13.3875C13.3167 13.6458 14.3667 14.0333 15.4 14.55C15.8833 14.8 16.2708 15.1625 16.5625 15.6375C16.8542 16.1125 17 16.6333 17 17.2V18C17 18.55 16.8042 19.0208 16.4125 19.4125C16.0208 19.8042 15.55 20 15 20H3C2.45 20 1.97917 19.8042 1.5875 19.4125C1.19583 19.0208 1 18.55 1 18Z"/>
</svg>
