<svg width="24" height="24" viewBox="0 0 24 24" fill="none" xmlns="http://www.w3.org/2000/svg">
<g clip-path="url(#clip0_815_4532)">
<path d="M20.36 10.9991H19V4.99907H13V3.63907C13 2.32907 12.06 1.13907 10.76 1.00907C9.26 0.859071 8 2.02907 8 3.49907V4.99907H2.01V10.7991H3.4C4.71 10.7991 5.9 11.6791 6.15 12.9591C6.48 14.6791 5.17 16.1991 3.5 16.1991H2V21.9991H7.8V20.5991C7.8 19.2891 8.68 18.0991 9.96 17.8491C11.68 17.5191 13.2 18.8291 13.2 20.4991V21.9991H19V15.9991H20.5C21.97 15.9991 23.14 14.7391 22.99 13.2391C22.86 11.9391 21.66 10.9991 20.36 10.9991Z"/>
</g>
<defs>
<clipPath id="clip0_815_4532">
<rect width="24" height="24"/>
</clipPath>
</defs>
</svg>
