<svg width="196" height="30" viewBox="0 0 196 30" fill="none" xmlns="http://www.w3.org/2000/svg">
<path opacity="0.2" d="M13 0L26 7.5V22.5L13 30L0 22.5V7.5L13 0Z" fill="#5A6A75"/>
<path opacity="0.2" d="M47 0L60 7.5V22.5L47 30L34 22.5V7.5L47 0Z" fill="#5A6A75"/>
<path opacity="0.2" d="M81 0L94 7.5V22.5L81 30L68 22.5V7.5L81 0Z" fill="#5A6A75"/>
<path opacity="0.2" d="M115 0L128 7.5V22.5L115 30L102 22.5V7.5L115 0Z" fill="#5A6A75"/>
<path opacity="0.2" d="M149 0L162 7.5V22.5L149 30L136 22.5V7.5L149 0Z" fill="#5A6A75"/>
<path opacity="0.2" d="M183 0L196 7.5V22.5L183 30L170 22.5V7.5L183 0Z" fill="#5A6A75"/>
<path d="M13 0L26 7.5V22.5L13 30L0 22.5V7.5L13 0Z" fill="url(#paint0_linear_393_177)"/>
<path d="M47 0L60 7.5V22.5L47 30L34 22.5V7.5L47 0Z" fill="url(#paint1_linear_393_177)"/>
<path d="M81 0L94 7.5V22.5L81 30L68 22.5V7.5L81 0Z" fill="url(#paint2_linear_393_177)"/>
<path d="M115 0L128 7.5V22.5L115 30L102 22.5V7.5L115 0Z" fill="url(#paint3_linear_393_177)"/>
<path d="M149 0L162 7.5V22.5L149 30L136 22.5V7.5L149 0Z" fill="url(#paint4_linear_393_177)"/>
<path d="M183 0L196 7.5V22.5L183 30L170 22.5V7.5L183 0Z" fill="url(#paint5_linear_393_177)"/>
<defs>
<linearGradient id="paint0_linear_393_177" x1="0" y1="15" x2="196" y2="15" gradientUnits="userSpaceOnUse">
<stop offset="0.166427" stop-color="#D46C2B"/>
<stop offset="1" stop-color="#EBB642"/>
</linearGradient>
<linearGradient id="paint1_linear_393_177" x1="0" y1="15" x2="196" y2="15" gradientUnits="userSpaceOnUse">
<stop offset="0.166427" stop-color="#D46C2B"/>
<stop offset="1" stop-color="#EBB642"/>
</linearGradient>
<linearGradient id="paint2_linear_393_177" x1="0" y1="15" x2="196" y2="15" gradientUnits="userSpaceOnUse">
<stop offset="0.166427" stop-color="#D46C2B"/>
<stop offset="1" stop-color="#EBB642"/>
</linearGradient>
<linearGradient id="paint3_linear_393_177" x1="0" y1="15" x2="196" y2="15" gradientUnits="userSpaceOnUse">
<stop offset="0.166427" stop-color="#D46C2B"/>
<stop offset="1" stop-color="#EBB642"/>
</linearGradient>
<linearGradient id="paint4_linear_393_177" x1="0" y1="15" x2="196" y2="15" gradientUnits="userSpaceOnUse">
<stop offset="0.166427" stop-color="#D46C2B"/>
<stop offset="1" stop-color="#EBB642"/>
</linearGradient>
<linearGradient id="paint5_linear_393_177" x1="0" y1="15" x2="196" y2="15" gradientUnits="userSpaceOnUse">
<stop offset="0.166427" stop-color="#D46C2B"/>
<stop offset="1" stop-color="#EBB642"/>
</linearGradient>
</defs>
</svg>
