<svg width="98" height="108" viewBox="0 0 98 108" fill="none" xmlns="http://www.w3.org/2000/svg">
<path fill-rule="evenodd" clip-rule="evenodd" d="M16.8106 71.5476L57.3862 31.2991C54.1851 29.9264 50.695 29.0772 47.017 28.8646C30.025 27.8827 15.4543 40.8614 14.4724 57.8533C14.1922 62.7017 15.0486 67.3529 16.8106 71.5476ZM73.3629 47.0144L32.3936 87.6536C35.783 89.2083 39.5138 90.1698 43.4611 90.3979C60.4531 91.3798 75.0238 78.4011 76.0057 61.4092C76.3015 56.2893 75.3299 51.3892 73.3629 47.0144Z" fill="#27F4F8"/>
<circle cx="71.1357" cy="32.5063" r="9.44134" transform="rotate(-176.693 71.1357 32.5063)" fill="white"/>
<path d="M96.4952 8.72078L80.7231 23.824L49.1788 54.0303L17.6345 84.2367L1.8623 99.3398" stroke="white" stroke-width="1.52574"/>
</svg>
