<svg width="24" height="25" viewBox="0 0 24 25" fill="none" xmlns="http://www.w3.org/2000/svg">
<path d="M11.4267 2.57911C11.6327 2.7102 11.7591 2.89279 11.7966 3.09879C11.8574 3.4593 11.7825 3.58102 10.907 4.53144C10.4576 5.01835 10.0971 5.42098 10.1017 5.43035C10.1111 5.43503 10.3265 5.46312 10.584 5.49589C14.7747 5.96153 18 9.7081 18 13.8998C17.9896 17.9072 15.1287 21.4143 11.1832 22.2101C9.36468 22.5738 7.38513 22.2961 5.73359 21.4656C5.13899 21.1613 4.98449 20.946 5.05472 20.4918C5.13899 19.93 5.75231 19.7006 6.30945 20.0236C6.59504 20.1922 7.29732 20.4731 7.67655 20.5761C9.38074 21.0302 11.0849 20.8664 12.6299 20.0985C15.1007 18.8661 16.6491 16.1632 16.455 13.4176C16.2207 10.3319 13.7771 7.46757 10.6495 7.05963C10.5091 7.04558 10.3546 7.01749 10.3031 7.00345C10.2562 6.9894 10.5933 7.33117 11.0615 7.7619C11.9932 8.62336 12.0868 8.75445 12.0307 9.13368C11.9932 9.39586 11.7544 9.66741 11.4922 9.747C11.3138 9.80132 11.1852 9.76799 11.01 9.73296C10.8508 9.6955 7.77019 6.87704 7.62037 6.62422C7.55014 6.51185 7.51268 6.37608 7.51268 6.24031C7.51268 6.10453 7.55014 5.96876 7.62037 5.8564C7.72805 5.6738 10.4014 2.7617 10.6027 2.61188C10.7712 2.47611 11.2347 2.46206 11.4267 2.57911Z" fill="#27F4F8"/>
</svg>
