<svg width="40" height="40" viewBox="0 0 40 40" fill="none" xmlns="http://www.w3.org/2000/svg">
<path d="M19.9998 25.9582C19.7776 25.9582 19.5693 25.9232 19.3748 25.8532C19.1804 25.7843 18.9998 25.6665 18.8332 25.4998L12.8332 19.4998C12.5276 19.1943 12.3748 18.8054 12.3748 18.3332C12.3748 17.8609 12.5276 17.4721 12.8332 17.1665C13.1387 16.8609 13.5343 16.7009 14.0198 16.6865C14.5065 16.6732 14.9026 16.8193 15.2082 17.1248L18.3332 20.2498V8.33317C18.3332 7.86095 18.4932 7.46484 18.8132 7.14484C19.1321 6.82595 19.5276 6.6665 19.9998 6.6665C20.4721 6.6665 20.8682 6.82595 21.1882 7.14484C21.5071 7.46484 21.6665 7.86095 21.6665 8.33317V20.2498L24.7915 17.1248C25.0971 16.8193 25.4932 16.6732 25.9798 16.6865C26.4654 16.7009 26.8609 16.8609 27.1665 17.1665C27.4721 17.4721 27.6248 17.8609 27.6248 18.3332C27.6248 18.8054 27.4721 19.1943 27.1665 19.4998L21.1665 25.4998C20.9998 25.6665 20.8193 25.7843 20.6248 25.8532C20.4304 25.9232 20.2221 25.9582 19.9998 25.9582ZM9.99984 33.3332C9.08317 33.3332 8.29873 33.0071 7.6465 32.3548C6.99317 31.7015 6.6665 30.9165 6.6665 29.9998V26.6665C6.6665 26.1943 6.82595 25.7982 7.14484 25.4782C7.46484 25.1593 7.86095 24.9998 8.33317 24.9998C8.80539 24.9998 9.2015 25.1593 9.5215 25.4782C9.84039 25.7982 9.99984 26.1943 9.99984 26.6665V29.9998H29.9998V26.6665C29.9998 26.1943 30.1598 25.7982 30.4798 25.4782C30.7987 25.1593 31.1943 24.9998 31.6665 24.9998C32.1387 24.9998 32.5343 25.1593 32.8532 25.4782C33.1732 25.7982 33.3332 26.1943 33.3332 26.6665V29.9998C33.3332 30.9165 33.0071 31.7015 32.3548 32.3548C31.7015 33.0071 30.9165 33.3332 29.9998 33.3332H9.99984Z" fill="white"/>
</svg>
