<svg width="47" height="51" viewBox="0 0 47 51" fill="none" xmlns="http://www.w3.org/2000/svg">
<path fill-rule="evenodd" clip-rule="evenodd" d="M8.19493 33.5393L27.2159 14.6716C25.7153 14.0281 24.0793 13.63 22.355 13.5303C14.3896 13.07 7.55913 19.1542 7.09882 27.1197C6.96748 29.3925 7.36896 31.5729 8.19493 33.5393ZM34.7055 22.0386L15.4999 41.0894C17.0888 41.8183 18.8377 42.269 20.6881 42.3759C28.6536 42.8362 35.4841 36.752 35.9444 28.7866C36.0831 26.3865 35.6276 24.0894 34.7055 22.0386Z" fill="#27F4F8"/>
<circle cx="33.661" cy="15.2373" r="4.42591" transform="rotate(-176.693 33.661 15.2373)" fill="white"/>
<path d="M45.5495 4.08751L38.1558 11.1676L23.3685 25.3277L8.58116 39.4878L1.1875 46.5679" stroke="white" stroke-width="1.52574"/>
</svg>
