<svg width="338" height="105" viewBox="0 0 338 105" fill="none" xmlns="http://www.w3.org/2000/svg">
<path d="M137 22.5H30H29.5L5 47L62 104H296L331 69V35.5H150L137 22.5Z" fill="#27F4F8"/>
<path d="M27.5 1L1 27.5V38.5L27.5 12H104.5L93.5 1H27.5Z" fill="#27F4F8"/>
<path d="M137 22.5H30H29.5L5 47L62 104H296L331 69V35.5H150L137 22.5Z" stroke="#27F4F8"/>
<path d="M27.5 1L1 27.5V38.5L27.5 12H104.5L93.5 1H27.5Z" stroke="#27F4F8"/>
<path d="M148.625 86.556V73.244L151.069 70.8H160.533V73.556H151.693V86.244H160.793V89H151.069L148.625 86.556ZM176.777 73.192V78.106L175.451 79.276L177.297 80.888V86.608L174.905 89H162.997V70.8H174.385L176.777 73.192ZM166.013 78.366H173.735V73.348H166.013V78.366ZM166.013 86.452H174.229V80.758H166.013V86.452ZM179.627 73.244L182.071 70.8H193.875V89H190.859V83.124H184.177L181.733 89H178.431L181.265 82.474L179.627 80.836V73.244ZM190.859 80.576V73.348H182.643V80.576H190.859ZM207.972 89H196.012V86.4H207.322V80.94H198.092V78.392H206.802V73.4H196.376V70.8H207.452L209.844 73.192V78.314L208.31 79.484L210.364 81.096V86.608L207.972 89ZM211.749 89L216.195 70.8H223.267L227.713 89H224.567L223.527 84.58H215.935L214.895 89H211.749ZM216.429 82.188H223.033L220.927 73.296H218.535L216.429 82.188ZM233.938 89V73.4H228.686V70.8H242.206V73.4H236.954V89H233.938ZM258.419 77.144V86.556L255.975 89H244.171V70.8H247.187V74.7H255.975L258.419 77.144ZM255.403 77.248H247.187V86.452H255.403V77.248ZM260.776 86.556V73.244L263.22 70.8H272.684V73.556H263.844V86.244H272.944V89H263.22L260.776 86.556ZM275.095 73.244L277.539 70.8H289.343V89H286.327V83.124H279.645L277.201 89H273.899L276.733 82.474L275.095 80.836V73.244ZM286.327 80.576V73.348H278.111V80.576H286.327Z" fill="#0C1A22"/>
<path d="M37 33L44 44H30L37 33Z" fill="#0C1A22" fill-opacity="0.6"/>
<path d="M49 44L56 33H42L49 44Z" fill="#0C1A22" fill-opacity="0.6"/>
<path d="M54.9108 43.5L61 33.9313L67.0892 43.5H54.9108Z" stroke="#0C1A22" stroke-opacity="0.6"/>
<path d="M73.0018 44V34.2H74.6258V38.316H77.2718L79.2738 34.2H81.1078L78.7698 38.82L81.3178 44H79.4558L77.4258 39.744H74.6258V44H73.0018ZM82.0232 42.628V37.532L83.3952 36.16H87.6512L89.0232 37.532V42.628L87.6512 44H83.3952L82.0232 42.628ZM83.6472 42.628H87.3992V37.532H83.6472V42.628ZM90.5018 44V36.16H92.4338L94.7438 39.968L97.0538 36.16H98.9858V44H97.4318V37.966L95.1918 41.732H94.2958L92.0418 37.966V44H90.5018ZM100.411 42.6V39.52L105.759 39.38V37.56H100.691V36.16H105.983L107.383 37.56V44H101.811L100.411 42.6ZM102.035 40.696V42.628H105.759V40.416L102.035 40.696ZM108.945 44V36.16H110.569V39.324H114.433V36.16H116.057V44H114.433V40.78H110.569V44H108.945ZM118.019 45.96V44.56H122.975V42.88H118.915L117.543 41.508V37.532L119.027 36.16H124.599V44.448L123.087 45.96H118.019ZM119.167 37.56V41.508H122.975V37.56H119.167ZM126.032 42.6V39.52L131.38 39.38V37.56H126.312V36.16H131.604L133.004 37.56V44H127.432L126.032 42.6ZM127.656 40.696V42.628H131.38V40.416L127.656 40.696Z" fill="#0C1A22" fill-opacity="0.6"/>
<path d="M337 38V28H327" stroke="#27F4F8" stroke-width="2" stroke-linecap="round"/>
</svg>
