<svg width="95" height="12" viewBox="0 0 95 12" fill="none" xmlns="http://www.w3.org/2000/svg">
<g opacity="0.2">
<path d="M5.19615 0L10.3923 3V9L5.19615 12L0 9V3L5.19615 0Z" fill="#5A6A75"/>
<path d="M19.1962 0L24.3923 3V9L19.1962 12L14 9V3L19.1962 0Z" fill="#5A6A75"/>
<path d="M33.1962 0L38.3923 3V9L33.1962 12L28 9V3L33.1962 0Z" fill="#5A6A75"/>
<path d="M47.1962 0L52.3923 3V9L47.1962 12L42 9V3L47.1962 0Z" fill="#5A6A75"/>
<path d="M61.1962 0L66.3923 3V9L61.1962 12L56 9V3L61.1962 0Z" fill="#5A6A75"/>
<path d="M75.1962 0L80.3923 3V9L75.1962 12L70 9V3L75.1962 0Z" fill="#5A6A75"/>
<path d="M89.1962 0L94.3923 3V9L89.1962 12L84 9V3L89.1962 0Z" fill="#5A6A75"/>
</g>
</svg>
