<svg width="40" height="40" viewBox="0 0 40 40" fill="none" xmlns="http://www.w3.org/2000/svg">
<path d="M25.9879 27.8366L31.5394 29.2245L35.5963 25.1676L29.2309 25.1676L25.9879 27.8366Z" fill="white"/>
<path d="M27.8569 20L34.5496 21.3385L35.5134 23.5958L29.4593 23.5958L27.8569 20Z" fill="white"/>
<path d="M24.9261 26.6747L23.6802 22.9371L26.2844 20.3329L27.9877 24.1551L24.9261 26.6747Z" fill="white"/>
<path d="M19.9188 34.9684L16.1604 32.354L6.7761 32.3894L6.93538 32.6653L11.9462 35.447L19.9188 34.9684Z" fill="white"/>
<path d="M20.9627 34.0094L17.6088 31.6763L21.627 29.007L22.1563 29.5544L20.9627 34.0094Z" fill="white"/>
<path d="M20.6445 27.9909L16.5225 23.7277L9.80922 21.929L3.98242 27.5629L5.97089 31.0072L16.1618 30.9688L20.6445 27.9909Z" fill="white"/>
<path d="M25.6935 7.46082L19.4529 3.89648L8.49433 6.8876L6.1875 18.434L19.4855 13.7539L25.6935 7.46082Z" fill="white"/>
<path d="M25.5057 10.2087L21.1779 14.5958L22.9081 16.7685L25.5057 10.2087Z" fill="white"/>
<path d="M21.9573 18.4577L19.6747 15.5914L9.58159 19.1436L21.9573 18.4577Z" fill="white"/>
</svg>
