<svg width="24" height="24" viewBox="0 0 24 24" fill="none" xmlns="http://www.w3.org/2000/svg">
<path d="M12 22C9.68333 21.4167 7.77083 20.0875 6.2625 18.0125C4.75417 15.9375 4 13.6333 4 11.1V5L12 2L20 5V11.1C20 13.6333 19.2458 15.9375 17.7375 18.0125C16.2292 20.0875 14.3167 21.4167 12 22ZM12 19.9C13.7333 19.35 15.1667 18.25 16.3 16.6C17.4333 14.95 18 13.1167 18 11.1V6.375L12 4.125L6 6.375V11.1C6 13.1167 6.56667 14.95 7.7 16.6C8.83333 18.25 10.2667 19.35 12 19.9ZM9 16H15V11H14V10C14 9.45 13.8042 8.97917 13.4125 8.5875C13.0208 8.19583 12.55 8 12 8C11.45 8 10.9792 8.19583 10.5875 8.5875C10.1958 8.97917 10 9.45 10 10V11H9V16ZM11 11V10C11 9.71667 11.0958 9.47917 11.2875 9.2875C11.4792 9.09583 11.7167 9 12 9C12.2833 9 12.5208 9.09583 12.7125 9.2875C12.9042 9.47917 13 9.71667 13 10V11H11Z"/>
</svg>
