<svg width="53" height="33" viewBox="0 0 53 33" fill="none" xmlns="http://www.w3.org/2000/svg">
<mask id="mask0_551_7255" style="mask-type:alpha" maskUnits="userSpaceOnUse" x="0" y="0" width="53" height="33">
<rect width="53" height="33" rx="10" fill="#EBB642"/>
</mask>
<g mask="url(#mask0_551_7255)">
<rect width="53" height="33" rx="10" fill="#27F4F8"/>
<path d="M37.9992 16C37.9992 17.9823 37.5186 19.8524 36.6674 21.5C35.6114 23.5441 33.9852 25.2458 31.9992 26.3946C30.2342 27.4156 28.185 28 25.9992 28C25.1419 28 24.3056 27.9101 23.4992 27.7392C21.4147 27.2975 19.5301 26.3146 17.9992 24.9444C16.5131 23.6143 15.3604 21.9192 14.6821 20C14.2398 18.7489 13.9992 17.4025 13.9992 16C13.9992 14.9641 14.1305 13.9589 14.3773 13C14.6028 12.124 14.9247 11.2866 15.331 10.5C16.3871 8.45565 18.0136 6.75379 20 5.60494C21.7649 4.5842 23.8138 4 25.9992 4C27.9816 4 29.8516 4.48067 31.4992 5.33182C33.7124 6.47511 35.5241 8.28686 36.6674 10.5C37.5186 12.1476 37.9992 14.0177 37.9992 16Z" fill="#0C1A22"/>
<path d="M37.9992 16C37.9992 14.0177 37.5186 12.1476 36.6674 10.5C35.5241 8.28686 33.7124 6.47511 31.4992 5.33182M37.9992 16H42.9992L45.9992 13L53.5 20.5008M37.9992 16C37.9992 17.9823 37.5186 19.8524 36.6674 21.5M25.9992 4V0M25.9992 4C27.9816 4 29.8516 4.48067 31.4992 5.33182M25.9992 4C23.8138 4 21.7649 4.5842 20 5.60494M31.4992 5.33182L34.9992 1.83182H49.5M36.6674 21.5L47.5 32.3326M36.6674 21.5C35.6114 23.5441 33.9852 25.2458 31.9992 26.3946C30.2342 27.4156 28.185 28 25.9992 28C25.1419 28 24.3056 27.9101 23.4992 27.7392M23.4992 27.7392L20.7384 30.5V33M23.4992 27.7392C21.4147 27.2975 19.5301 26.3146 17.9992 24.9444C16.5131 23.6143 15.3604 21.9192 14.6821 20M14.6821 20C14.2398 18.7489 13.9992 17.4025 13.9992 16C13.9992 14.9641 14.1305 13.9589 14.3773 13M14.6821 20L10.9992 16.3172L5.81641 21.5H0M14.3773 13H5.81641H0M14.3773 13C14.6028 12.124 14.9247 11.2866 15.331 10.5C16.3871 8.45565 18.0136 6.75379 20 5.60494M20 5.60494L16.2269 1.83182V0" stroke="#0C1A22"/>
<path d="M22 18L20 16L22.5 13.5H20M24 12L26 10L28.5 12.5V10M30 14L32 16L29.5 18.5H32M28 20L26 22L23.5 19.5V22" stroke="white"/>
</g>
</svg>
