<svg width="53" height="33" viewBox="0 0 53 33" fill="none" xmlns="http://www.w3.org/2000/svg">
<rect width="53" height="33" rx="10" fill="#EBB642"/>
<mask id="mask0_132_1052" style="mask-type:alpha" maskUnits="userSpaceOnUse" x="0" y="0" width="53" height="33">
<rect width="53" height="33" rx="10" fill="#EBB642"/>
</mask>
<g mask="url(#mask0_132_1052)">
<path d="M38.9992 16C38.9992 17.9823 38.5186 19.8524 37.6674 21.5C36.6114 23.5441 34.9852 25.2458 32.9992 26.3946C31.2342 27.4156 29.185 28 26.9992 28C26.1419 28 25.3056 27.9101 24.4992 27.7392C22.4147 27.2975 20.5301 26.3146 18.9992 24.9444C17.5131 23.6143 16.3604 21.9192 15.6821 20C15.2398 18.7489 14.9992 17.4025 14.9992 16C14.9992 14.9641 15.1305 13.9589 15.3773 13C15.6028 12.124 15.9247 11.2866 16.331 10.5C17.3871 8.45565 19.0136 6.75379 21 5.60494C22.7649 4.5842 24.8138 4 26.9992 4C28.9816 4 30.8516 4.48067 32.4992 5.33182C34.7124 6.47511 36.5241 8.28686 37.6674 10.5C38.5186 12.1476 38.9992 14.0177 38.9992 16Z" fill="#102734"/>
<path d="M38.9992 16C38.9992 14.0177 38.5186 12.1476 37.6674 10.5C36.5241 8.28686 34.7124 6.47511 32.4992 5.33182M38.9992 16H43.9992L46.9992 13L53.4992 19.5M38.9992 16C38.9992 17.9823 38.5186 19.8524 37.6674 21.5M26.9992 4V0M26.9992 4C28.9816 4 30.8516 4.48067 32.4992 5.33182M26.9992 4C24.8138 4 22.7649 4.5842 21 5.60494M32.4992 5.33182L35.9992 1.83182H48.9992M37.6674 21.5L49.6674 33.5M37.6674 21.5C36.6114 23.5441 34.9852 25.2458 32.9992 26.3946C31.2342 27.4156 29.185 28 26.9992 28C26.1419 28 25.3056 27.9101 24.4992 27.7392M24.4992 27.7392L21.7384 30.5V35M24.4992 27.7392C22.4147 27.2975 20.5301 26.3146 18.9992 24.9444C17.5131 23.6143 16.3604 21.9192 15.6821 20M15.6821 20C15.2398 18.7489 14.9992 17.4025 14.9992 16C14.9992 14.9641 15.1305 13.9589 15.3773 13M15.6821 20L11.9992 16.3172L6.81641 21.5H-1M15.3773 13H6.81641H-2M15.3773 13C15.6028 12.124 15.9247 11.2866 16.331 10.5C17.3871 8.45565 19.0136 6.75379 21 5.60494M21 5.60494L17.2269 1.83182V-3" stroke="#102734"/>
</g>
<path d="M29.3948 19.1346L31.6154 19.6898L33.2382 18.067L30.692 18.067L29.3948 19.1346Z" fill="white"/>
<path d="M30.1424 16L32.8195 16.5354L33.205 17.4383L30.7834 17.4383L30.1424 16Z" fill="white"/>
<path d="M28.9701 18.6699L28.4717 17.1748L29.5134 16.1332L30.1947 17.662L28.9701 18.6699Z" fill="white"/>
<path d="M26.9666 21.9872L25.4633 20.9414L21.7095 20.9555L21.7733 21.0659L23.7776 22.1786L26.9666 21.9872Z" fill="white"/>
<path d="M27.386 21.6018L26.0444 20.6685L27.6516 19.6008L27.8634 19.8198L27.386 21.6018Z" fill="white"/>
<path d="M27.2587 19.1944L25.6098 17.4891L22.9245 16.7696L20.5938 19.0232L21.3892 20.4009L25.4656 20.3856L27.2587 19.1944Z" fill="white"/>
<path d="M29.2776 10.9853L26.7813 9.55957L22.3979 10.756L21.4752 15.3746L26.7943 13.5025L29.2776 10.9853Z" fill="white"/>
<path d="M29.2025 12.0844L27.4713 13.8393L28.1634 14.7084L29.2025 12.0844Z" fill="white"/>
<path d="M27.7831 15.3841L26.87 14.2375L22.8328 15.6584L27.7831 15.3841Z" fill="white"/>
</svg>
