<svg width="262" height="40" viewBox="0 0 262 40" fill="none" xmlns="http://www.w3.org/2000/svg">
<path opacity="0.2" d="M17.3333 0L34.6667 10V30L17.3333 40L0 30V10L17.3333 0Z" fill="#5A6A75"/>
<path opacity="0.2" d="M62.6654 0L79.9987 10V30L62.6654 40L45.332 30V10L62.6654 0Z" fill="#5A6A75"/>
<path opacity="0.2" d="M108.001 0L125.335 10V30L108.001 40L90.668 30V10L108.001 0Z" fill="#5A6A75"/>
<path opacity="0.2" d="M153.333 0L170.667 10V30L153.333 40L136 30V10L153.333 0Z" fill="#5A6A75"/>
<path opacity="0.2" d="M198.665 0L215.999 10V30L198.665 40L181.332 30V10L198.665 0Z" fill="#5A6A75"/>
<path opacity="0.2" d="M244.001 0L261.335 10V30L244.001 40L226.668 30V10L244.001 0Z" fill="#5A6A75"/>
<path d="M17.3333 0L34.6667 10V30L17.3333 40L0 30V10L17.3333 0Z" fill="url(#paint0_linear_455_281)"/>
<path d="M62.6667 0L80 10V30L62.6667 40L45.3333 30V10L62.6667 0Z" fill="url(#paint1_linear_455_281)"/>
<path d="M153.333 0L170.667 10V30L153.333 40L136 30V10L153.333 0Z" fill="url(#paint2_linear_455_281)"/>
<path d="M108 0L125.333 10V30L108 40L90.6667 30V10L108 0Z" fill="url(#paint3_linear_455_281)"/>
<path d="M198.667 0L216 10V30L198.667 40L181.333 30V10L198.667 0Z" fill="url(#paint4_linear_455_281)"/>
<path d="M244 0L261.333 10V30L244 40L226.667 30V10L244 0Z" fill="url(#paint5_linear_455_281)"/>
<defs>
<linearGradient id="paint0_linear_455_281" x1="0" y1="20" x2="261.333" y2="20" gradientUnits="userSpaceOnUse">
<stop stop-color="#26E897"/>
<stop offset="1" stop-color="#158255"/>
</linearGradient>
<linearGradient id="paint1_linear_455_281" x1="0" y1="20" x2="261.333" y2="20" gradientUnits="userSpaceOnUse">
<stop stop-color="#26E897"/>
<stop offset="1" stop-color="#158255"/>
</linearGradient>
<linearGradient id="paint2_linear_455_281" x1="0" y1="20" x2="261.333" y2="20" gradientUnits="userSpaceOnUse">
<stop stop-color="#26E897"/>
<stop offset="1" stop-color="#158255"/>
</linearGradient>
<linearGradient id="paint3_linear_455_281" x1="0" y1="20" x2="261.333" y2="20" gradientUnits="userSpaceOnUse">
<stop stop-color="#26E897"/>
<stop offset="1" stop-color="#158255"/>
</linearGradient>
<linearGradient id="paint4_linear_455_281" x1="0" y1="20" x2="261.333" y2="20" gradientUnits="userSpaceOnUse">
<stop stop-color="#26E897"/>
<stop offset="1" stop-color="#158255"/>
</linearGradient>
<linearGradient id="paint5_linear_455_281" x1="0" y1="20" x2="261.333" y2="20" gradientUnits="userSpaceOnUse">
<stop stop-color="#26E897"/>
<stop offset="1" stop-color="#158255"/>
</linearGradient>
</defs>
</svg>
