<svg width="262" height="40" viewBox="0 0 262 40" fill="none" xmlns="http://www.w3.org/2000/svg">
<g clip-path="url(#clip0_407_165)">
<path opacity="0.2" d="M17.3333 0L34.6667 10V30L17.3333 40L0 30V10L17.3333 0Z" fill="#5A6A75"/>
<path opacity="0.2" d="M62.6654 0L79.9987 10V30L62.6654 40L45.332 30V10L62.6654 0Z" fill="#5A6A75"/>
<path opacity="0.2" d="M108.001 0L125.335 10V30L108.001 40L90.668 30V10L108.001 0Z" fill="#5A6A75"/>
<path opacity="0.2" d="M153.333 0L170.667 10V30L153.333 40L136 30V10L153.333 0Z" fill="#5A6A75"/>
<path opacity="0.2" d="M198.665 0L215.999 10V30L198.665 40L181.332 30V10L198.665 0Z" fill="#5A6A75"/>
<path opacity="0.2" d="M244.001 0L261.335 10V30L244.001 40L226.668 30V10L244.001 0Z" fill="#5A6A75"/>
</g>
<defs>
<clipPath id="clip0_407_165">
<rect width="261.333" height="40" fill="white"/>
</clipPath>
</defs>
</svg>
